<svg width="150" height="150" viewBox="0 0 150 150" fill="none" xmlns="http://www.w3.org/2000/svg" style="width: 200px; height: 200px; transform: rotateY(0deg);"><style>
     .camera2-line1 { animation:camera2-line1 2s infinite; }
     .camera2-line2 { animation:camera2-line2 2s infinite; }

     @keyframes camera2-line1 {
         0%{opacity: 0;}
         20%{transform:translate3d(0, 0, 0); opacity: 0;}
         60%{opacity: .8;}
         70%{transform:translate3d(2px, -4px, 0); opacity: .8;}
         90%{opacity: 0;}
         100%{transform:translate3d(2px, -4px, 0); opacity: 0;}
     }

     @keyframes camera2-line2 {
         0%{opacity: 0;}
         30%{transform:translate3d(0, 0, 0); opacity: 0;}
         60%{opacity: .8;}
         70%{transform:translate3d(2px, -4px, 0); opacity: .8;}
         90%{opacity: 0;}
         100%{transform:translate3d(2px, -4px, 0); opacity: 0;}
     }
     
     .camera2-shutter {animation:camera2-shutter 2s infinite; transform-origin: 83.69px 49.38px;}
     @keyframes camera2-shutter {
         0%{transform:scale(1);}
         30%{transform:scale(1);}
         50%{transform:scale(.4);}
         60%{transform:scale(1);}
         100%{transform:scale(1);}
     }
     @media (prefers-reduced-motion: reduce) {
         .camera2-shutter, .camera2-line1, .camera2-line2 {
             animation: none;
         }
     }
    </style><path class="fillCls1" d="M123.224 12H2V133.224H123.224V12Z" fill="rgba(255,255,255,1)" stroke-width="2px" style="animation-duration: 2s;"></path><path class="fillCls2 camera2-line1" d="M96.0571 20.1721L92.8391 26.4735C92.42 27.2967 93.6623 28.0302 94.0814 27.192L97.2994 20.8905C97.7185 20.0673 96.4912 19.3488 96.0571 20.1721Z" fill="#6B004C" stroke-width="2px" style="animation-duration: 2s;"></path><path class="fillCls2 camera2-line2" d="M101.505 24.1386C100.203 25.4108 98.9159 26.6981 97.6137 27.9703C96.9551 28.6139 97.8233 29.7664 98.4818 29.1079L102.373 25.2761C103.032 24.6325 102.164 23.48 101.505 24.1386Z" fill="#6B004C" stroke-width="2px" style="animation-duration: 2s;"></path><path class="fillCls9" d="M83.4861 30.7101C82.1689 26.8934 78.4419 26.3845 74.4904 27.2376C72.5297 27.6567 70.509 28.4201 68.7129 29.2882C67.261 29.9767 65.9438 30.7401 64.8961 31.4436C64.3872 31.7878 63.9531 32.1171 63.5789 32.4165C63.2945 32.656 63.2945 32.9404 63.4292 33.1798C63.6388 33.554 64.1776 33.7785 64.6117 33.4193C64.6865 33.3594 64.7614 33.2996 64.8212 33.2547C64.5967 33.6289 64.6566 34.1976 65.1954 34.3473C66.0037 34.5718 66.8569 34.8562 67.7549 35.1556C70.7186 36.1584 74.0863 37.3708 77.1098 37.3259C77.3942 37.3259 77.6786 37.311 77.963 37.281C78.2174 37.2511 78.4868 37.2211 78.7413 37.1762C78.876 37.1463 79.0107 37.1164 79.1604 37.0864C79.2203 37.0715 79.2951 37.0565 79.355 37.0415C82.0492 36.2931 84.5039 33.6438 83.4861 30.7101Z" fill="#E88E09" stroke-width="2px" style="animation-duration: 2s;"></path><path class="fillCls9" d="M74.492 27.2525C74.4321 27.028 74.3573 26.8035 74.2675 26.579C71.5733 20.1578 63.8798 26.2197 58.9105 30.8149C57.0994 32.4912 55.6625 33.9581 54.9291 34.5867C54.7046 34.7813 54.6746 35.0058 54.7195 35.2004C54.4052 35.1705 54.0909 35.1555 53.7766 35.1256C52.8635 35.0358 52.8635 36.4727 53.7766 36.5625C53.9861 36.5774 54.1957 36.6074 54.4052 36.6224C54.7046 36.6523 54.989 36.6673 55.2883 36.6822C55.6026 36.6972 55.9319 36.7122 56.2463 36.7271C60.1229 36.8768 64.0894 36.4427 67.7565 35.1555C68.3103 34.9609 68.8641 34.7514 69.4029 34.5269C70.1364 34.2125 70.8848 33.7934 71.5882 33.2845C71.8128 33.1199 72.0223 32.9552 72.2319 32.7756C72.4264 32.611 72.636 32.4314 72.8156 32.2368C73.2796 31.7728 73.6688 31.2639 73.9831 30.725C74.5668 29.7072 74.8213 28.5248 74.492 27.2525Z" fill="#E88E09" stroke-width="2px" style="animation-duration: 2s;"></path><path class="fillCls9" d="M47.2949 44.8247C49.2108 32.132 61.664 29.2582 66.6932 29.2582C71.7224 29.2582 78.3681 29.4378 81.631 45.154C84.894 60.8851 47.2949 44.8247 47.2949 44.8247Z" fill="#E88E09" stroke-width="2px" style="animation-duration: 2s;"></path><path class="fillCls4" d="M84.4444 67.426C82.7231 71.6918 80.8222 72.6198 77.7089 72.8593L73.6376 85.9112C73.6376 85.9112 72.2007 92.3773 63.2201 91.2996C56.0056 90.4315 54.4789 85.552 54.4789 85.552C54.4789 85.552 55.3171 81.0617 56.8138 69.0276C52.7426 66.7076 50.6471 59.2686 50.6471 59.2686C42.7741 59.0889 35.1854 54.898 37.3857 46.965C38.9423 41.3371 44.5852 41.0977 48.6115 42.3699C50.258 42.8938 51.635 43.6721 52.3385 44.4205C52.3385 44.4205 51.6051 36.278 61.1695 33.0899C70.5094 29.9766 76.9755 33.8083 79.3703 40.0349C80.1636 42.0855 80.9569 42.2352 81.6155 45.1539C83.6212 53.9999 86.1807 63.1003 84.4444 67.426Z" fill="#FDC485" stroke-width="2px" style="animation-duration: 2s;"></path><path class="fillCls5" d="M84.9543 61.948C85.1938 61.8133 85.4183 61.6786 85.6429 61.5439C85.598 61.02 85.5381 60.4662 85.4632 59.9124H84.7448C84.6849 59.4484 84.6101 58.9844 84.5352 58.5054C84.5352 58.4755 84.5203 58.4605 84.5203 58.4306C84.2808 58.4456 84.0413 58.4605 83.8018 58.4605C83.8018 58.4905 83.8168 58.5054 83.8168 58.5354C83.8916 58.9994 83.9665 59.4634 84.0263 59.8974C84.1461 60.7356 84.2359 61.5439 84.2808 62.2923C84.2957 62.5617 84.3107 62.8162 84.3257 63.0706C84.3257 63.34 84.3406 63.5945 84.3257 63.8639C84.5502 63.7741 84.7897 63.6544 85.0441 63.5196C85.0441 63.2652 85.0292 62.9958 85.0292 62.7264C84.9843 62.4869 84.9693 62.2175 84.9543 61.948ZM85.7327 63.1604C85.7327 62.891 85.7177 62.6216 85.7027 62.3522C85.6877 62.0977 85.6728 61.8283 85.6429 61.5589C85.598 61.035 85.5381 60.4812 85.4632 59.9274C85.4034 59.4334 85.3285 58.9395 85.2387 58.4306C85.2387 58.4156 85.2237 58.3857 85.2237 58.3707C85.1938 58.1612 85.1489 57.9367 85.119 57.7121C85.119 57.6972 85.119 57.6672 85.104 57.6523C85.0591 57.4427 85.0292 57.2182 84.9843 57.0087C84.9843 56.9937 84.9843 56.9638 84.9693 56.9488C84.8496 56.2603 84.6999 55.5568 84.5502 54.8383C84.3706 53.9702 84.176 53.0721 83.9665 52.1741C83.8467 51.6203 83.712 51.0814 83.5923 50.5126C83.4575 49.9439 83.3228 49.3751 83.2031 48.8063C82.9187 47.549 82.6193 46.2767 82.335 45.0195C82.2601 44.6902 82.1853 44.3908 82.1104 44.1214C81.9907 43.7023 81.871 43.358 81.7512 43.0587C81.6016 42.6994 81.4519 42.4001 81.3022 42.1307C81.1825 41.9062 81.0627 41.7116 80.928 41.502C80.8083 41.2925 80.6735 41.0979 80.5538 40.8734C80.5388 40.8584 80.5388 40.8434 80.5388 40.8434C80.4191 40.6189 80.2844 40.3645 80.1646 40.0651C80.1347 39.9903 80.1048 39.9005 80.0599 39.8107C80.0299 39.7358 80 39.661 79.9701 39.5861C79.9401 39.5113 79.9102 39.4514 79.8803 39.3766C79.7904 39.1521 79.6857 38.9276 79.5809 38.703C79.3264 38.1941 79.042 37.6852 78.7277 37.1913C77.3806 35.1407 75.4198 33.3296 72.8005 32.2669C70.6152 31.3838 67.9808 31.0096 64.8825 31.4586C63.6402 31.6382 62.338 31.9526 60.946 32.4166C57.8477 33.4494 55.7671 34.991 54.3901 36.6375C52.4443 38.9425 51.8605 41.4272 51.6809 42.9838C50.9026 42.4899 49.9147 42.0409 48.8221 41.6816C48.6275 41.6218 48.373 41.5469 48.0887 41.4721C46.2925 41.0081 43.0445 40.5291 40.2755 42.0409C38.4943 42.9988 37.2819 44.6004 36.6832 46.7707C35.86 49.7493 36.294 52.4884 37.9405 54.7036C40.2306 57.787 44.7508 59.7328 50.0943 59.9723C50.6332 61.6786 52.594 67.1119 56.0216 69.402C56.0066 69.5666 55.9767 69.7313 55.9617 69.8959C55.842 70.8389 55.7372 71.737 55.6175 72.5901C55.4827 73.593 55.363 74.5359 55.2433 75.419C55.1834 75.913 55.1086 76.392 55.0487 76.856C54.914 77.784 54.7942 78.6371 54.6895 79.4005C54.5547 80.2986 54.45 81.0918 54.3452 81.7803C53.971 84.2949 53.7615 85.4026 53.7465 85.4325C53.7315 85.5522 53.7315 85.672 53.7614 85.7768C53.7914 85.8516 53.986 86.4802 54.5547 87.3184C55.6474 88.9649 58.0871 91.4196 63.1163 92.0183C63.7001 92.0932 64.2539 92.1231 64.7927 92.1381C64.9125 92.1381 65.0322 92.1381 65.137 92.1381C66.3793 92.1381 67.457 91.9884 68.3999 91.719C68.6993 91.6441 68.9837 91.5394 69.2531 91.4496C69.4477 91.3747 69.6273 91.2999 69.8069 91.225C69.9117 91.1801 70.0165 91.1203 70.1212 91.0754C70.3607 90.9556 70.5703 90.8359 70.7798 90.7012C71.3486 90.3419 71.8276 89.9528 72.2467 89.5486C73.8931 87.9321 74.3122 86.136 74.3122 86.136L74.3871 85.8965L74.5218 85.4475L74.7762 84.6093L75.3749 82.6635L75.5995 81.93L78.2188 73.5481C79.7455 73.3834 81.0178 73.0242 82.1404 72.1561C83.248 71.2879 84.2059 69.9109 85.089 67.7106C85.5979 66.4683 85.7776 64.9266 85.7327 63.1604ZM83.7868 67.1568C82.2003 71.1233 80.5388 71.9316 77.665 72.1411C77.3657 72.1561 77.1262 72.3656 77.0364 72.65L73.2346 84.8637L72.9502 85.7618C72.9352 85.8067 72.8753 86.0462 72.7406 86.4054C72.5011 87.0041 72.0072 87.9022 71.0941 88.7404C71.0193 88.8152 70.9295 88.89 70.8397 88.9649C70.5553 89.2044 70.241 89.4139 69.8818 89.6235C69.6123 89.7732 69.313 89.9228 68.9837 90.0575C68.2503 90.3569 67.3971 90.5664 66.3943 90.6712C65.4962 90.761 64.4784 90.7461 63.3259 90.6113C58.0422 89.9827 56.0366 87.1238 55.4229 85.8965C55.3331 85.7318 55.2882 85.5971 55.2433 85.5073C55.3331 84.9685 55.6324 83.2622 56.0964 80.089C56.2012 79.3705 56.3209 78.5922 56.4407 77.7241C56.5754 76.7063 56.74 75.5837 56.8897 74.3563C57.0544 73.114 57.234 71.7669 57.4136 70.3001C57.4585 69.9259 57.5034 69.5367 57.5633 69.1475C57.5932 68.923 57.5184 68.7135 57.3687 68.5488C57.3238 68.5039 57.2789 68.459 57.219 68.4291C57.0693 68.3393 56.9197 68.2495 56.77 68.1447C53.2825 65.7199 51.4115 59.164 51.3965 59.1041C51.3067 58.8048 51.0373 58.5803 50.723 58.5803C45.6639 58.4605 41.2334 56.6644 39.1678 53.8804C37.7758 52.0094 37.4316 49.7493 38.15 47.1898C38.644 45.4086 39.6169 44.1064 41.0388 43.3281C42.7601 42.3851 45.2298 42.2354 47.7444 42.8791C47.9839 42.9389 48.2234 42.9988 48.4479 43.0736C49.9297 43.5526 51.2319 44.2561 51.8755 44.9446C52.0851 45.1691 52.4143 45.229 52.6987 45.1093C52.9831 44.9895 53.1478 44.6902 53.1178 44.3908C53.1029 44.1663 52.8035 40.0801 56.291 36.7722C57.5034 35.6197 59.1648 34.5719 61.4699 33.8086C62.1584 33.5841 62.8319 33.3895 63.4755 33.2248C66.6936 32.4615 69.4028 32.5962 71.633 33.3296C74.0278 34.1229 75.8539 35.5897 77.1711 37.3709C77.5902 37.9397 77.9644 38.5534 78.2637 39.167C78.3386 39.3018 78.3984 39.4514 78.4583 39.5861C78.4883 39.661 78.5331 39.7358 78.5631 39.8107C78.6379 39.9753 78.6978 40.1549 78.7726 40.3196C78.7876 40.3645 78.8175 40.4243 78.8325 40.4692C78.9822 40.8584 79.1468 41.1877 79.2965 41.4721C79.4162 41.6966 79.536 41.9061 79.6557 42.1007C79.6857 42.1456 79.7156 42.2055 79.7455 42.2504C79.8353 42.4001 79.9401 42.5647 80.015 42.7144C80.1646 42.9838 80.3143 43.2682 80.449 43.5975C80.5837 43.9118 80.7035 44.2711 80.8232 44.7201C80.8681 44.9147 80.928 45.1093 80.9729 45.3338C81.2124 46.3666 81.4519 47.4143 81.6914 48.462C81.7363 48.6866 81.7961 48.9111 81.841 49.1356C82.0506 50.0037 82.2452 50.8719 82.4397 51.725C82.5595 52.2788 82.6942 52.8326 82.8139 53.3865C82.9187 53.8954 83.0384 54.3893 83.1432 54.8832C83.2929 55.6316 83.4426 56.3501 83.5773 57.0685C83.5773 57.0985 83.5923 57.1134 83.5923 57.1434C83.6372 57.3679 83.6671 57.5774 83.712 57.787C83.712 57.8169 83.727 57.8319 83.727 57.8618C83.7719 58.0863 83.8018 58.2959 83.8467 58.5054C83.8467 58.5354 83.8617 58.5503 83.8617 58.5803C83.9365 59.0443 84.0114 59.5083 84.0712 59.9423C84.191 60.7805 84.2808 61.5888 84.3257 62.3372C84.3406 62.6066 84.3556 62.8611 84.3706 63.1155C84.3706 63.3849 84.3856 63.6394 84.3706 63.9088C84.2958 65.1661 84.1311 66.2737 83.7868 67.1568Z" fill="#201000" stroke-width="2px" style="animation-duration: 2s;"></path><path class="fillCls5" d="M48.7312 52.2637C48.4019 52.2637 48.1175 52.0392 48.0277 51.7099C47.2943 48.6714 44.63 46.5909 43.4924 46.5161C43.1033 46.4861 42.8039 46.1419 42.8189 45.7527C42.8488 45.3486 43.1931 45.0792 43.5823 45.0792C45.3634 45.1989 48.5366 47.7135 49.4197 51.3806C49.5095 51.7698 49.27 52.1589 48.8958 52.2487C48.8359 52.2487 48.7761 52.2637 48.7312 52.2637Z" fill="#201000" stroke-width="2px" style="animation-duration: 2s;"></path><path class="fillCls5" d="M58.4158 43.7771C59.2241 44.0466 60.0323 44.331 60.8256 44.6004C61.7985 44.9297 61.3794 46.5013 60.3916 46.157L57.9818 45.3338C57.0088 45.0045 57.428 43.4479 58.4158 43.7771Z" fill="#201000" stroke-width="2px" style="animation-duration: 2s;"></path><path class="fillCls5" d="M61.3787 58.4752C60.5256 58.3554 59.8071 57.9363 59.3581 57.188C58.8791 56.3947 57.6368 57.1131 58.1157 57.9064C58.7444 58.9392 59.7921 59.6876 60.9895 59.8522C61.3787 59.9121 61.7529 59.7624 61.8727 59.3433C61.9774 59.029 61.7679 58.5351 61.3787 58.4752Z" fill="#201000" stroke-width="2px" style="animation-duration: 2s;"></path><path class="fillCls4" d="M103.109 42.6688C96.6429 29.9761 89.2488 40.8278 89.9373 42.1898C90.8952 44.1057 92.7512 40.9924 96.8823 40.9924C99.5167 40.9924 99.5167 45.7821 98.3193 49.6139L103.109 42.6688Z" fill="#FDC485" stroke-width="2px" style="animation-duration: 2s;"></path><path class="fillCls5" d="M103.75 42.3546C102.269 39.4508 100.742 37.7595 99.3049 36.8315C98.8409 36.5321 98.3919 36.3076 97.9429 36.1579C96.1617 35.5442 94.5901 35.9783 93.5124 36.5171C92.1503 37.2057 90.9379 38.3881 90.1446 39.5556C89.4861 40.5135 89.1268 41.4565 89.1717 42.1151C89.1867 42.2648 89.2166 42.3995 89.2765 42.5043C89.6208 43.1928 90.0698 43.4622 90.5637 43.5071C90.5937 43.5071 90.6236 43.5071 90.6535 43.5071C91.2972 43.537 92.0156 43.1778 92.6442 42.8635C92.9735 42.6988 93.3328 42.5192 93.7219 42.3546C94.5751 41.9954 95.5779 41.696 96.7903 41.681H96.8502C97.2244 41.681 97.5088 41.8307 97.7333 42.145C97.853 42.2947 97.9429 42.4893 98.0177 42.6988C98.0925 42.9084 98.1524 43.1329 98.2123 43.3874C98.2572 43.6119 98.2871 43.8514 98.3021 44.1058C98.332 44.4501 98.347 44.8243 98.332 45.2134C98.317 45.4679 98.3021 45.7373 98.2871 46.0217C98.2572 46.2911 98.2272 46.5755 98.1823 46.8599C98.1075 47.3838 97.9878 47.9376 97.853 48.4764C97.8381 48.5363 97.8231 48.5962 97.8081 48.656C97.7632 48.8057 97.7333 48.9554 97.6884 49.0901C97.6585 49.1799 97.6285 49.2847 97.5986 49.3745C97.5088 49.6589 97.5986 49.9433 97.8081 50.1229C97.8381 50.1378 97.853 50.1678 97.883 50.1827C97.9428 50.2276 98.0027 50.2576 98.0776 50.2725C98.1524 50.3025 98.2272 50.3025 98.2871 50.3025C98.6014 50.3025 98.8709 50.1079 98.9756 49.7936C99.0355 49.614 99.0804 49.4493 99.1253 49.2697C99.1852 49.0302 99.26 48.7907 99.3049 48.5513C99.3498 48.3267 99.4097 48.1022 99.4546 47.8777C99.4696 47.7729 99.4995 47.6681 99.5145 47.5634C99.6043 47.1143 99.6642 46.6503 99.7091 46.2013C99.739 45.9469 99.7539 45.6774 99.7689 45.423C99.7839 45.1685 99.7839 44.9141 99.7839 44.6596C99.7839 44.3303 99.754 44.016 99.724 43.7017C99.6941 43.4622 99.6641 43.2227 99.6043 42.9982C99.5594 42.7587 99.4845 42.5192 99.4097 42.3097C99.275 41.9205 99.1103 41.5763 98.8858 41.2769C98.3769 40.5884 97.6734 40.2292 96.8352 40.2292C96.461 40.2292 96.0869 40.2591 95.7426 40.304C95.6229 40.319 95.4881 40.3339 95.3684 40.3639C94.3955 40.5285 93.5723 40.8279 92.8688 41.1422C92.5395 41.2919 92.2551 41.4266 91.9707 41.5613C90.7882 42.145 90.6835 42.145 90.5488 41.8906C90.5637 41.5014 91.0577 40.4986 91.9108 39.5107C92.6891 38.6126 93.7668 37.7445 95.0391 37.4002C95.6228 37.2506 96.1766 37.2206 96.7005 37.3104C97.2244 37.3853 97.7183 37.5799 98.1973 37.8493C99.709 38.7024 100.966 40.3788 101.924 42.0702C102.059 42.3247 102.194 42.5641 102.328 42.8186C102.358 42.8635 102.388 42.9234 102.403 42.9683C102.463 43.073 102.538 43.1628 102.643 43.2377C102.852 43.3874 103.137 43.4023 103.376 43.2826C103.481 43.2227 103.571 43.1479 103.646 43.0581C103.84 42.8785 103.87 42.5941 103.75 42.3546Z" fill="#201000" stroke-width="2px" style="animation-duration: 2s;"></path><path class="fillCls3" d="M145.991 107.195C145.272 112.988 139.315 114.948 134.495 115.412C132.011 115.652 129.526 115.802 127.041 115.876C125.769 115.697 124.497 115.517 123.225 115.323C113.481 113.916 103.766 112.389 94.0524 110.817C93.1393 110.413 92.2413 109.994 91.3582 109.53C90.3853 109.021 89.5171 110.338 90.2206 110.982C90.1757 110.967 90.1458 110.967 90.1009 110.952C89.9213 118.376 89.7416 125.785 89.562 133.209H41.0215C41.0963 132.985 41.3059 132.79 41.6052 132.775C46.1255 116.535 55.0014 100.579 67.724 89.3985C74.8188 83.1719 82.4972 85.6416 90.8942 87.4377C100.878 89.5631 111.46 92.7662 121.443 94.8917C116.16 88.0963 110.277 80.2083 105.009 73.4129C100.967 68.219 94.0823 61.8727 94.5014 54.7031C94.7708 50.123 98.2883 47.0845 102.764 46.8899C108.436 46.6355 112.702 50.6618 115.98 54.8229C118.465 57.996 120.875 61.259 123.24 64.522C125.305 67.3509 127.341 70.2098 129.421 73.0237C133.717 78.906 140.453 88.0364 143.596 94.6222C146.065 99.8011 146.709 101.358 145.991 107.195Z" fill="#CA3B3B" stroke-width="2px" style="animation-duration: 2s;"></path><path class="fillCls4" d="M134.495 115.413C139.314 114.949 145.271 112.988 145.99 107.195C146.708 101.358 146.065 99.8013 143.595 94.6224C140.452 88.0366 133.716 78.9062 129.421 73.0239C127.34 70.2099 125.304 67.3511 123.239 64.5222C120.874 61.2592 118.464 57.9962 115.979 54.823C112.702 50.662 108.436 46.6357 102.763 46.8901C98.2875 47.0847 94.7701 50.1232 94.5007 54.7033C94.0816 61.8729 100.967 68.2192 105.008 73.4131C110.277 80.2084 116.159 88.0965 121.443 94.8918L107.5 91.5002L108.5 94.6224L107.5 101L105.008 112L123.224 115.323C124.496 115.517 125.768 115.697 127.041 115.877H127.041C129.525 115.802 132.01 115.652 134.495 115.413Z" fill="#FDC485" stroke-width="2px" style="animation-duration: 2s;"></path><path class="fillCls4" d="M107.178 46.0215C104.738 41.2767 98.8558 42.5939 95.2037 44.8241C92.4047 46.5304 90.7433 48.4912 94.0063 50.3323L107.178 46.0215Z" fill="#FDC485" stroke-width="2px" style="animation-duration: 2s;"></path><path class="fillCls5" d="M94.0069 51.0507C93.8872 51.0507 93.7675 51.0207 93.6477 50.9608C92.2258 50.1526 91.5073 49.2246 91.4923 48.1768C91.4774 46.8597 92.5251 45.6024 94.8302 44.2104C97.21 42.7585 100.832 41.5162 103.841 42.3693C105.607 42.8633 106.939 43.9859 107.822 45.6922C108.002 46.0514 107.867 46.4855 107.508 46.6651C107.149 46.8447 106.715 46.71 106.535 46.3508C105.846 45.0186 104.814 44.1355 103.452 43.7613C100.877 43.0429 97.689 44.1505 95.5785 45.4377C93.2585 46.8447 92.9293 47.7428 92.9293 48.1619C92.9442 48.7755 93.7076 49.3443 94.3662 49.7185C94.7104 49.9131 94.8302 50.3472 94.6356 50.6914C94.5009 50.9309 94.2464 51.0507 94.0069 51.0507Z" fill="#201000" stroke-width="2px" style="animation-duration: 2s;"></path><path class="fillCls4" d="M95.6834 53.2061C87.4362 50.1826 105.502 39.0765 109.334 48.6559L95.6834 53.2061Z" fill="#FDC485" stroke-width="2px" style="animation-duration: 2s;"></path><path class="fillCls5" d="M95.6857 53.9247C95.6109 53.9247 95.5211 53.9097 95.4313 53.8798C92.9766 52.9817 92.7521 51.455 92.8419 50.6168C93.1262 47.9226 97.5417 44.8242 101.912 44.2106C105.774 43.6717 108.723 45.1984 109.995 48.3716C110.145 48.7458 109.965 49.1649 109.591 49.2996C109.232 49.4493 108.798 49.2697 108.663 48.8955C107.286 45.4529 103.963 45.3631 102.107 45.6175C98.1255 46.1713 94.4584 48.8955 94.2638 50.7515C94.189 51.4849 94.7428 52.0836 95.9103 52.5027C96.2845 52.6374 96.479 53.0565 96.3443 53.4307C96.2545 53.745 95.9701 53.9247 95.6857 53.9247Z" fill="#201000" stroke-width="2px" style="animation-duration: 2s;"></path><path class="fillCls5" d="M131.937 116.34C125.441 116.34 116.984 114.799 106.866 112.972C101.837 112.059 96.6431 111.116 91.0152 110.233C90.6261 110.173 90.3567 109.799 90.4165 109.41C90.4764 109.021 90.8356 108.752 91.2398 108.811C96.8826 109.694 102.091 110.637 107.121 111.55C127.357 115.233 140.723 117.657 144.345 109.021C148.477 99.1572 141.502 89.5628 131.204 77.0946C127.013 72.0206 123.226 66.7519 119.888 62.0819C115.263 55.6308 111.267 50.0478 109.111 49.3443C103.034 47.3387 98.3495 51.1704 97.0323 53.3407C96.5084 54.1939 96.5384 54.6878 96.6282 54.7776C96.8527 55.0022 98.3794 55.077 102.241 52.6073C104.516 51.1554 107.974 51.0806 110.159 53.7449C110.414 54.0442 110.369 54.5082 110.054 54.7627C109.74 55.0171 109.291 54.9722 109.036 54.6579C107.375 52.6373 104.741 52.7121 103.004 53.8197C99.2176 56.2295 96.733 56.8881 95.6104 55.7955C94.9069 55.1069 94.9667 53.9394 95.79 52.5774C97.7208 49.4192 103.259 45.9017 109.545 47.9673C112.15 48.8205 115.877 54.0293 121.041 61.2437C124.364 65.8838 128.135 71.1374 132.296 76.1666C142.924 89.0389 150.108 98.9626 145.663 109.575C143.567 114.589 138.867 116.34 131.937 116.34Z" fill="#201000" stroke-width="2px" style="animation-duration: 2s;"></path><path class="fillCls5" d="M121.311 95.8497C121.251 95.8497 121.191 95.8497 121.132 95.8197C116.686 94.6822 112.615 93.4698 108.693 92.3023C97.6471 89.0243 88.1275 86.1954 74.8212 86.0158C74.417 86.0158 74.1027 85.6865 74.1177 85.2824C74.1177 84.8932 74.447 84.5789 74.8361 84.5789C74.8361 84.5789 74.8361 84.5789 74.8511 84.5789C88.3371 84.7585 97.9614 87.6174 109.112 90.9253C113.034 92.0928 117.075 93.2902 121.506 94.4277C121.895 94.5325 122.119 94.9217 122.03 95.2959C121.925 95.6401 121.64 95.8497 121.311 95.8497Z" fill="#201000" stroke-width="2px" style="animation-duration: 2s;"></path><path class="fillCls5" d="M125.86 101.133C125.65 101.133 125.426 101.028 125.291 100.849C125.291 100.849 100.609 68.5033 93.6643 59.4028C93.4248 59.0885 93.4847 58.6395 93.799 58.4C94.1133 58.1605 94.5623 58.2204 94.8018 58.5347C101.747 67.6351 126.429 99.9805 126.429 99.9805C126.668 100.295 126.608 100.744 126.294 100.983C126.174 101.073 126.025 101.133 125.86 101.133Z" fill="#201000" stroke-width="2px" style="animation-duration: 2s;"></path><path class="fillCls4" d="M85.6098 41.4716C82.0175 35.4845 71.9591 42.4295 70.7617 47.4587L85.6098 41.4716Z" fill="#FDC485" stroke-width="2px" style="animation-duration: 2s;"></path><path class="fillCls5" d="M70.7634 48.1769C70.7035 48.1769 70.6586 48.1769 70.5987 48.162C70.2095 48.0722 69.9701 47.683 70.0599 47.2938C70.9579 43.5369 76.047 39.1963 80.3577 38.5227C82.9022 38.1336 84.9977 39.0466 86.2401 41.0972C86.4496 41.4414 86.3299 41.8755 86.0006 42.0851C85.6563 42.2946 85.2222 42.1749 85.0127 41.8456C84.0697 40.274 82.5879 39.6453 80.5822 39.9596C76.511 40.5883 72.1703 44.7044 71.4668 47.6381C71.392 47.9524 71.0926 48.1769 70.7634 48.1769Z" fill="#201000" stroke-width="2px" style="animation-duration: 2s;"></path><path class="fillCls3" d="M52.8007 80.0433C27.2806 69.7455 19.1232 74.8346 20.0961 91.2991C22.2514 127.596 24.781 132.595 34.3454 135.858C45.9604 139.81 55.0459 131.398 61.6616 113.571C69.5646 92.2421 75.5667 70 77.2281 67.5752C80.3414 63.025 81.2994 64.7014 84.8917 62.7855C88.4839 60.8696 93.5131 56.7984 90.8788 55.8404C88.2444 54.8825 87.2865 58.9537 81.2994 57.5168C78.9195 56.948 74.8333 54.4035 76.2702 46.9795L52.8007 80.0433Z" fill="#CA3B3B" stroke-width="2px" style="animation-duration: 2s;"></path><path class="fillCls4" d="M61.6619 113.571C55.0462 131.398 45.9607 139.81 34.3457 135.858L28.5 133L25 127.5L23.5 122.5L21 106.5L24.5 103L28.5 101.5L37 100.5L42 101.5L42.5 107.5L52.801 80.0436L76.2705 46.9797C74.8336 54.4038 78.9198 56.9483 81.2997 57.5171C87.2868 58.954 88.2447 54.8827 90.8791 55.8407C93.5134 56.7986 88.4842 60.8698 84.892 62.7857C81.2997 64.7016 80.3417 63.0252 77.2284 67.5754C75.567 70.0002 69.5649 92.2423 61.6619 113.571Z" fill="#FDC485" stroke-width="2px" style="animation-duration: 2s;"></path><path class="fillCls5" d="M39.9144 137.565C38.0434 137.565 36.1126 137.221 34.1219 136.547C24.303 133.209 21.5789 128.33 19.3786 91.3444C18.9296 83.7108 20.4712 78.7415 24.0785 76.1371C29.2274 72.4401 38.4326 73.4579 53.0561 79.3701C53.4303 79.5198 53.595 79.9389 53.4603 80.3131C53.3106 80.6873 52.8915 80.852 52.5173 80.7173C38.5823 75.0894 29.5567 73.9818 24.9167 77.3196C21.7285 79.6096 20.3814 84.1748 20.8005 91.2695C22.9409 127.387 25.4855 132.102 34.5709 135.185C45.3477 138.852 54.2386 131.503 60.9741 113.332C65.18 101.972 68.907 90.2068 71.6162 81.6004C74.3553 72.919 75.8221 68.3389 76.6154 67.1714C78.7259 64.103 79.9383 63.654 81.7644 63.19C82.5277 62.9954 83.3958 62.7709 84.5484 62.1572C88.0359 60.3012 90.9546 57.607 90.8947 56.6939C90.8947 56.6191 90.7151 56.5443 90.6403 56.5143C89.8919 56.2449 89.368 56.5143 88.3502 57.113C86.8983 57.9662 84.9226 59.1187 81.1357 58.2207C77.7081 57.3974 74.1907 53.9249 75.5677 46.8451C75.6425 46.456 76.0167 46.2015 76.4059 46.2764C76.795 46.3512 77.0495 46.7254 76.9747 47.1146C75.4629 54.9577 80.4472 56.5742 81.465 56.8137C84.6831 57.592 86.2397 56.679 87.6168 55.8707C88.6495 55.272 89.7123 54.6434 91.1192 55.1672C92.1071 55.5265 92.3017 56.215 92.3167 56.6041C92.4813 58.999 87.1079 62.4116 85.2219 63.4295C83.9197 64.118 82.9319 64.3724 82.1236 64.582C80.6717 64.9562 79.7138 65.2106 77.8129 67.9946C77.0944 69.0424 75.2833 74.775 72.9932 82.0344C70.2691 90.6409 66.5421 102.436 62.3212 113.826C56.4838 129.617 48.955 137.565 39.9144 137.565Z" fill="#201000" stroke-width="2px" style="animation-duration: 2s;"></path><path class="fillCls4" d="M40.2129 112.509C40.2129 112.509 57.4708 65.1208 66.4514 48.6562C69.3252 43.3876 74.8334 39.7953 76.5098 44.585C78.1862 49.3747 74.8334 51.7695 74.8334 51.7695L40.2129 112.509Z" fill="#FDC485" stroke-width="2px" style="animation-duration: 2s;"></path><path class="fillCls5" d="M40.2143 113.227C40.1395 113.227 40.0497 113.212 39.9748 113.182C39.6006 113.048 39.406 112.628 39.5408 112.254C39.7204 111.775 56.9184 64.6268 65.8242 48.3119C67.7401 44.8094 71.1827 41.3968 74.1313 41.6362C75.1192 41.7111 76.4513 42.2499 77.1848 44.3454C79.0258 49.5841 75.2839 52.3232 75.2539 52.3532C74.9246 52.5777 74.4756 52.5029 74.2511 52.1885C74.0265 51.8592 74.1014 51.4102 74.4157 51.1857C74.5355 51.0959 77.3045 49.0154 75.8377 44.8244C75.4485 43.7168 74.8498 43.133 74.0265 43.0731C72.0508 42.9085 68.9974 45.5129 67.0965 49.0154C58.2505 65.2404 41.0824 112.284 40.9028 112.763C40.7831 113.048 40.5137 113.227 40.2143 113.227Z" fill="#201000" stroke-width="2px" style="animation-duration: 2s;"></path><path class="fillCls5" d="M74.3557 53.6853C74.2809 53.6853 74.221 53.6703 74.1462 53.6553C73.772 53.5356 73.5475 53.1315 73.6672 52.7573C75.0293 48.2969 74.1612 47.3539 73.8468 47.1743C73.1583 46.7552 71.5418 47.4437 70.2995 48.686C70.0151 48.9704 69.566 48.9704 69.2817 48.686C68.9973 48.4016 68.9973 47.9526 69.2817 47.6682C70.7635 46.1864 73.0386 45.0189 74.5803 45.9469C76.077 46.845 76.2267 49.2698 75.0293 53.1764C74.9544 53.4907 74.6701 53.6853 74.3557 53.6853Z" fill="#201000" stroke-width="2px" style="animation-duration: 2s;"></path><path class="fillCls5" d="M70.2978 59.4625C70.0733 59.4625 69.9236 59.4326 69.8937 59.4326C69.5045 59.3578 69.2501 58.9836 69.3249 58.5795C69.3998 58.1753 69.7889 57.9358 70.1781 58.0107C70.238 58.0256 71.9742 58.2651 72.9471 55.1518C73.456 53.5203 73.2465 52.0535 72.4382 51.4997C71.7198 51.0058 70.5373 51.3201 69.28 52.3229C68.9657 52.5774 68.5167 52.5175 68.2622 52.2032C68.0078 51.8888 68.0676 51.4398 68.382 51.1854C70.9415 49.1348 72.6328 49.8832 73.2465 50.2873C74.6086 51.2153 75.0127 53.2809 74.3092 55.556C73.2315 59.0734 71.1809 59.4625 70.2978 59.4625Z" fill="#201000" stroke-width="2px" style="animation-duration: 2s;"></path><path class="fillCls5" d="M70.2835 62.5612C69.9991 62.5612 69.7297 62.3816 69.61 62.0972C69.4154 61.6183 67.8288 57.3225 69.7447 55.1372C69.9991 54.8379 70.4632 54.8079 70.7625 55.0624C71.0619 55.3168 71.0918 55.7808 70.8373 56.0802C69.6998 57.3824 70.538 60.4957 70.9721 61.5734C71.1217 61.9476 70.9271 62.3667 70.5679 62.5014C70.4631 62.5463 70.3733 62.5612 70.2835 62.5612Z" fill="#201000" stroke-width="2px" style="animation-duration: 2s;"></path><path class="fillCls5" d="M104.787 111.91C104.712 111.91 104.622 111.895 104.547 111.865C104.173 111.73 103.978 111.311 104.113 110.937C104.158 110.802 108.798 97.9149 106.972 91.7482C106.852 91.374 107.077 90.9698 107.451 90.8501C107.84 90.7304 108.229 90.9549 108.349 91.3291C110.31 97.9448 105.655 110.877 105.46 111.431C105.355 111.73 105.071 111.91 104.787 111.91Z" fill="#201000" stroke-width="2px" style="animation-duration: 2s;"></path><path class="fillCls5" d="M21.6552 107.12C21.5654 107.12 21.4606 107.105 21.3708 107.061C21.0116 106.896 20.8469 106.477 20.9966 106.118C23.7806 99.7862 34.8418 99.1276 41.8168 100.669C42.206 100.759 42.4454 101.133 42.3556 101.522C42.2658 101.912 41.8916 102.151 41.5025 102.061C35.201 100.654 24.7385 101.163 22.3138 106.686C22.194 106.956 21.9246 107.12 21.6552 107.12Z" fill="#201000" stroke-width="2px" style="animation-duration: 2s;"></path><path class="fillCls5" d="M89.9377 133.703C89.9228 133.703 89.9228 133.703 89.9078 133.703C89.5186 133.688 89.2043 133.359 89.2193 132.954L90.1772 105.159C90.1922 104.77 90.5364 104.441 90.9256 104.471C91.3148 104.486 91.6291 104.815 91.6141 105.219L90.6562 133.014C90.6412 133.403 90.3119 133.703 89.9377 133.703Z" fill="#201000" stroke-width="2px" style="animation-duration: 2s;"></path><path class="fillCls5" d="M42.1452 107.928C41.756 107.928 41.4417 107.629 41.4267 107.24L40.813 92.3019C40.798 91.9128 41.1124 91.5685 41.5015 91.5535C41.8907 91.5236 42.235 91.8529 42.2499 92.242L42.8636 107.18C42.8786 107.569 42.5643 107.913 42.1751 107.928C42.1601 107.928 42.1452 107.928 42.1452 107.928Z" fill="#201000" stroke-width="2px" style="animation-duration: 2s;"></path><path class="fillCls3" d="M70.5234 91.1797L75.7921 94.5325L78.6659 85.911L75.3131 82.5582L70.5234 91.1797Z" fill="#CA3B3B" stroke-width="2px" style="animation-duration: 2s;"></path><path class="fillCls5" d="M79.2206 85.4468C79.2056 85.4318 79.1906 85.4169 79.1757 85.4019L75.8229 82.0491C75.763 81.9893 75.7031 81.9443 75.6433 81.9144C75.5086 81.8545 75.3738 81.8246 75.2242 81.8396C75.0895 81.8545 74.9697 81.9144 74.865 82.0042C74.7901 82.0641 74.7302 82.124 74.7003 82.2138L73.2335 84.8631L72.2755 86.5844L71.0781 88.7397L70.644 89.533L70.2698 90.2215L69.9256 90.8502C69.8507 90.9699 69.8208 91.1046 69.8358 91.2394C69.8358 91.3741 69.8956 91.5237 69.9855 91.6285C70.0304 91.6884 70.0902 91.7482 70.1651 91.7932L75.4337 95.1459C75.5535 95.2208 75.6882 95.2657 75.8229 95.2657C75.8977 95.2657 75.9875 95.2507 76.0624 95.2208C76.2719 95.1459 76.4366 94.9813 76.5114 94.7717L79.3703 86.2102L79.3852 86.1503C79.4301 85.8958 79.3852 85.6414 79.2206 85.4468ZM71.4822 90.94L72.2606 89.548L74.2812 85.9258L74.3261 85.836L74.5357 85.4468L74.9997 84.6086L75.4786 83.7555L76.3617 84.6386L77.2149 85.4917L77.8435 86.1204V86.1353L75.4038 93.4546L71.4822 90.94Z" fill="#201000" stroke-width="2px" style="animation-duration: 2s;"></path><path class="fillCls8" d="M69.9545 45.1391C72.8433 42.7144 76.1362 40.8733 79.6387 39.5562H65.4941V49.854C66.7963 48.1327 68.2931 46.5312 69.9545 45.1391Z" fill="#0D1F5C" stroke-width="2px" style="animation-duration: 2s;"></path><path class="fillCls8" d="M96.4012 55.7512C95.7875 55.4219 95.6378 54.7334 95.7875 54.0897C95.8324 53.8652 95.9072 53.6407 96.012 53.4312C94.9643 53.1468 94.0812 52.4283 93.677 51.4404C93.243 51.1261 92.0455 48.6415 92.2551 47.8332C92.4796 46.9501 93.0484 46.1418 93.5423 45.603C94.62 44.4505 96.2066 44.0164 97.6884 43.5674C97.1196 41.2623 95.0391 39.571 92.5694 39.571H84.1126C84.3521 40.0949 84.3521 40.7235 84.0527 41.2174C85.4597 41.2174 86.8517 41.6365 88.0791 42.5795C91.4019 45.124 92.2102 49.7341 90.414 53.4012C90.1297 53.97 89.8602 54.5537 89.5908 55.1375C89.5459 55.2273 89.516 55.3171 89.4711 55.4219C89.4711 55.4368 89.4711 55.4368 89.4561 55.4518C89.4112 55.5566 89.3663 55.6763 89.3214 55.7811C90.3093 55.5566 91.357 56.3199 91.357 57.3976C91.357 58.4304 90.5188 59.1938 89.9052 59.9571L89.8902 59.9721H97.8381V56.0954C97.7183 56.0655 97.5986 56.0056 97.4789 55.9457C97.1047 55.9607 96.7305 55.9308 96.4012 55.7512Z" fill="#0D1F5C" stroke-width="2px" style="animation-duration: 2s;"></path><path class="fillCls7" d="M83.6945 57.757C88.3237 57.757 92.0764 54.0043 92.0764 49.3751C92.0764 44.7458 88.3237 40.9931 83.6945 40.9931C79.0652 40.9931 75.3125 44.7458 75.3125 49.3751C75.3125 54.0043 79.0652 57.757 83.6945 57.757Z" fill="#FFFFFF" stroke-width="2px" style="animation-duration: 2s;"></path><path class="fillCls5" d="M92.5844 50.2582C92.1503 49.5398 92.0455 48.6417 92.2401 47.8335C92.3 47.579 92.3898 47.3395 92.5095 47.1C92.4347 46.8157 92.3599 46.5462 92.2551 46.2768C92.0455 45.708 91.7911 45.1692 91.4768 44.6603C91.2373 44.2711 90.9679 43.882 90.6685 43.5377C90.6535 43.5227 90.6386 43.5078 90.6236 43.4778C90.1895 42.9689 89.7106 42.5199 89.1867 42.1158C88.2138 41.3674 87.0762 40.8285 85.8489 40.5292C85.4747 40.4394 85.0855 40.3645 84.6963 40.3196C84.3671 40.2897 84.0378 40.2598 83.7085 40.2598C83.6037 40.2598 83.484 40.2598 83.3792 40.2598C82.3913 40.2897 81.4334 40.4843 80.5503 40.8136C80.5503 40.8136 80.5503 40.8136 80.5353 40.8136C80.3108 40.8884 80.0863 40.9932 79.8767 41.083C79.6522 41.1878 79.4427 41.2925 79.2331 41.4123C78.3051 41.9362 77.4669 42.6247 76.7784 43.418C76.6137 43.6126 76.4491 43.8221 76.2845 44.0466C76.1198 44.2861 75.9552 44.5256 75.8055 44.78C75.6558 45.0345 75.5211 45.2889 75.4014 45.5584C75.2816 45.8128 75.1768 46.0822 75.087 46.3517C74.9823 46.651 74.8924 46.9504 74.8176 47.2497C74.653 47.9083 74.5781 48.5968 74.5781 49.3153V49.3452C74.5781 49.8691 74.623 50.393 74.7128 50.8869C74.7278 51.0216 74.7577 51.1414 74.7877 51.2761C74.8176 51.4108 74.8475 51.5605 74.8924 51.6952C74.9224 51.7999 74.9523 51.9197 74.9822 52.0245C75.0272 52.1592 75.0721 52.2789 75.117 52.4136C75.1469 52.4885 75.1619 52.5483 75.1918 52.6232C75.6109 53.7008 76.2246 54.6887 77.0029 55.5269C77.2574 55.7963 77.5118 56.0508 77.7962 56.2903C78.1704 56.6046 78.5596 56.889 78.9787 57.1434C80.3557 57.9816 81.9722 58.4606 83.7085 58.4606C83.7384 58.4606 83.7683 58.4606 83.7983 58.4606C84.0378 58.4606 84.2773 58.4456 84.5167 58.4307C84.7562 58.4157 84.9957 58.3708 85.2352 58.3409C85.7591 58.2511 86.268 58.1163 86.7619 57.9367C87.6001 57.6374 88.3934 57.2183 89.0969 56.6944C89.516 56.395 89.8902 56.0508 90.2494 55.6766C90.444 55.467 90.6386 55.2575 90.8182 55.033C91.851 53.7457 92.5395 52.1741 92.749 50.4528C92.6892 50.4079 92.6293 50.3331 92.5844 50.2582ZM88.3185 55.497C87.6899 55.9759 86.9864 56.3501 86.238 56.6196C85.8339 56.7692 85.4148 56.874 84.9658 56.9489C84.7263 56.9938 84.4868 57.0237 84.2473 57.0387C84.0677 57.0536 83.8731 57.0536 83.6785 57.0536C83.6187 57.0536 83.5738 57.0536 83.5139 57.0536C82.2416 57.0237 81.0442 56.6944 80.0114 56.1107C79.5774 55.8712 79.1732 55.6018 78.799 55.2874C78.5596 55.0779 78.3201 54.8683 78.1105 54.6288C77.3921 53.8655 76.8233 52.9525 76.4641 51.9346C76.3892 51.7251 76.3293 51.5155 76.2695 51.306C76.1946 50.9917 76.1198 50.6624 76.0899 50.3331C76.045 50.0188 76.03 49.6895 76.03 49.3602C76.03 49.1057 76.045 48.8662 76.0599 48.6118C76.0899 48.2526 76.1497 47.8933 76.2395 47.5491C76.3443 47.13 76.479 46.7259 76.6437 46.3517C76.7035 46.187 76.7784 46.0373 76.8532 45.8877C77.0179 45.5733 77.1825 45.274 77.3921 44.9896C77.4669 44.8699 77.5567 44.7651 77.6316 44.6603C78.2602 43.852 79.0535 43.1635 79.9516 42.6546C80.1611 42.5349 80.3707 42.4301 80.5952 42.3253C80.6999 42.2804 80.8047 42.2355 80.9245 42.1906C81.0442 42.1457 81.149 42.1008 81.2687 42.0709C82.0321 41.8164 82.8403 41.6817 83.6785 41.6817C84.0527 41.6817 84.4269 41.7116 84.8011 41.7565C84.861 41.7715 84.9209 41.7715 84.9658 41.7865C85.31 41.8464 85.6543 41.9362 85.9836 42.0409C87.4055 42.49 88.6478 43.3431 89.5758 44.4657C89.8902 44.8399 90.1596 45.244 90.3991 45.6781C90.9978 46.7708 91.3421 48.0281 91.3421 49.3452C91.372 51.8748 90.1746 54.09 88.3185 55.497Z" fill="#201000" stroke-width="2px" style="animation-duration: 2s;"></path><path class="fillCls6 camera2-shutter" d="M83.6937 54.8832C86.7358 54.8832 89.2018 52.4171 89.2018 49.375C89.2018 46.333 86.7358 43.8669 83.6937 43.8669C80.6516 43.8669 78.1855 46.333 78.1855 49.375C78.1855 52.4171 80.6516 54.8832 83.6937 54.8832Z" fill="#00DA9F" stroke-width="2px" style="animation-duration: 2s;"></path></svg>